<mxfile host="app.diagrams.net" modified="2023-12-17T22:59:48.747Z" agent="Mozilla/5.0 (X11; Linux x86_64) AppleWebKit/537.36 (KHTML, like Gecko) Chrome/119.0.0.0 Safari/537.36" etag="jicrQbA3HffaXbLOPjWZ" version="22.1.11" type="github">
  <diagram name="Page-1" id="MKczCCGeyVSxz_FjPHb1">
    <mxGraphModel dx="1434" dy="1866" grid="1" gridSize="10" guides="1" tooltips="1" connect="1" arrows="1" fold="1" page="1" pageScale="1" pageWidth="850" pageHeight="1100" math="0" shadow="0">
      <root>
        <mxCell id="0" />
        <mxCell id="1" parent="0" />
        <mxCell id="brHvFoJZMDcyv-ocwgSj-4" style="edgeStyle=orthogonalEdgeStyle;rounded=0;orthogonalLoop=1;jettySize=auto;html=1;exitX=1;exitY=1;exitDx=0;exitDy=0;" edge="1" parent="1">
          <mxGeometry relative="1" as="geometry">
            <mxPoint x="184" y="290" as="sourcePoint" />
            <mxPoint x="119" y="290" as="targetPoint" />
          </mxGeometry>
        </mxCell>
        <mxCell id="brHvFoJZMDcyv-ocwgSj-10" value="Auto Scaling group" style="points=[[0,0],[0.25,0],[0.5,0],[0.75,0],[1,0],[1,0.25],[1,0.5],[1,0.75],[1,1],[0.75,1],[0.5,1],[0.25,1],[0,1],[0,0.75],[0,0.5],[0,0.25]];outlineConnect=0;gradientColor=none;html=1;whiteSpace=wrap;fontSize=12;fontStyle=0;container=1;pointerEvents=0;collapsible=0;recursiveResize=0;shape=mxgraph.aws4.groupCenter;grIcon=mxgraph.aws4.group_auto_scaling_group;grStroke=1;strokeColor=#D86613;fillColor=none;verticalAlign=top;align=center;fontColor=#D86613;dashed=1;spacingTop=25;rotation=0;direction=south;" vertex="1" parent="1">
          <mxGeometry x="30" y="120" width="340" height="290" as="geometry" />
        </mxCell>
        <mxCell id="brHvFoJZMDcyv-ocwgSj-23" value="" style="strokeWidth=2;html=1;shape=mxgraph.flowchart.annotation_2;align=left;labelPosition=right;pointerEvents=1;direction=west;" vertex="1" parent="brHvFoJZMDcyv-ocwgSj-10">
          <mxGeometry x="150" y="130" width="220" height="85" as="geometry" />
        </mxCell>
        <mxCell id="brHvFoJZMDcyv-ocwgSj-54" value="" style="strokeWidth=2;html=1;shape=mxgraph.flowchart.annotation_2;align=left;labelPosition=right;pointerEvents=1;" vertex="1" parent="brHvFoJZMDcyv-ocwgSj-10">
          <mxGeometry y="120" width="70" height="80" as="geometry" />
        </mxCell>
        <mxCell id="brHvFoJZMDcyv-ocwgSj-62" value="" style="points=[[0,0.5,0],[0.24,0,0],[0.5,0.28,0],[0.995,0.475,0],[0.5,0.72,0],[0.24,1,0]];verticalLabelPosition=bottom;sketch=0;html=1;verticalAlign=top;aspect=fixed;align=center;pointerEvents=1;shape=mxgraph.cisco19.key;fillColor=#005073;strokeColor=none;" vertex="1" parent="brHvFoJZMDcyv-ocwgSj-10">
          <mxGeometry x="40" y="120" width="30" height="13.5" as="geometry" />
        </mxCell>
        <mxCell id="brHvFoJZMDcyv-ocwgSj-63" value="" style="points=[[0,0.5,0],[0.24,0,0],[0.5,0.28,0],[0.995,0.475,0],[0.5,0.72,0],[0.24,1,0]];verticalLabelPosition=bottom;sketch=0;html=1;verticalAlign=top;aspect=fixed;align=center;pointerEvents=1;shape=mxgraph.cisco19.key;fillColor=#005073;strokeColor=none;" vertex="1" parent="brHvFoJZMDcyv-ocwgSj-10">
          <mxGeometry x="35" y="200" width="40" height="18" as="geometry" />
        </mxCell>
        <mxCell id="brHvFoJZMDcyv-ocwgSj-15" style="edgeStyle=orthogonalEdgeStyle;rounded=0;orthogonalLoop=1;jettySize=auto;html=1;entryX=0.25;entryY=1;entryDx=0;entryDy=0;" edge="1" parent="1" source="brHvFoJZMDcyv-ocwgSj-13" target="brHvFoJZMDcyv-ocwgSj-14">
          <mxGeometry relative="1" as="geometry" />
        </mxCell>
        <mxCell id="brHvFoJZMDcyv-ocwgSj-13" value="Text" style="text;html=1;align=center;verticalAlign=middle;resizable=0;points=[];autosize=1;strokeColor=none;fillColor=none;" vertex="1" parent="1">
          <mxGeometry x="95" y="288" width="50" height="30" as="geometry" />
        </mxCell>
        <mxCell id="brHvFoJZMDcyv-ocwgSj-16" style="edgeStyle=orthogonalEdgeStyle;rounded=0;orthogonalLoop=1;jettySize=auto;html=1;" edge="1" parent="1" source="brHvFoJZMDcyv-ocwgSj-14">
          <mxGeometry relative="1" as="geometry">
            <mxPoint x="160" y="380" as="targetPoint" />
          </mxGeometry>
        </mxCell>
        <mxCell id="brHvFoJZMDcyv-ocwgSj-14" value="Private subnet" style="points=[[0,0],[0.25,0],[0.5,0],[0.75,0],[1,0],[1,0.25],[1,0.5],[1,0.75],[1,1],[0.75,1],[0.5,1],[0.25,1],[0,1],[0,0.75],[0,0.5],[0,0.25]];outlineConnect=0;gradientColor=none;html=1;whiteSpace=wrap;fontSize=12;fontStyle=0;container=1;pointerEvents=0;collapsible=0;recursiveResize=0;shape=mxgraph.aws4.group;grIcon=mxgraph.aws4.group_security_group;grStroke=0;strokeColor=#00A4A6;fillColor=#E6F6F7;verticalAlign=top;align=left;spacingLeft=30;fontColor=#147EBA;dashed=0;" vertex="1" parent="1">
          <mxGeometry x="95" y="200" width="130" height="160" as="geometry" />
        </mxCell>
        <mxCell id="brHvFoJZMDcyv-ocwgSj-1" value="" style="sketch=0;points=[[0,0,0],[0.25,0,0],[0.5,0,0],[0.75,0,0],[1,0,0],[0,1,0],[0.25,1,0],[0.5,1,0],[0.75,1,0],[1,1,0],[0,0.25,0],[0,0.5,0],[0,0.75,0],[1,0.25,0],[1,0.5,0],[1,0.75,0]];outlineConnect=0;fontColor=#232F3E;fillColor=#ED7100;strokeColor=#ffffff;dashed=0;verticalLabelPosition=bottom;verticalAlign=top;align=center;html=1;fontSize=12;fontStyle=0;aspect=fixed;shape=mxgraph.aws4.resourceIcon;resIcon=mxgraph.aws4.ec2;" vertex="1" parent="brHvFoJZMDcyv-ocwgSj-14">
          <mxGeometry x="17" y="20" width="50" height="50" as="geometry" />
        </mxCell>
        <mxCell id="brHvFoJZMDcyv-ocwgSj-17" style="edgeStyle=orthogonalEdgeStyle;rounded=0;orthogonalLoop=1;jettySize=auto;html=1;" edge="1" parent="brHvFoJZMDcyv-ocwgSj-14" source="brHvFoJZMDcyv-ocwgSj-1" target="brHvFoJZMDcyv-ocwgSj-1">
          <mxGeometry relative="1" as="geometry" />
        </mxCell>
        <mxCell id="brHvFoJZMDcyv-ocwgSj-2" value="" style="sketch=0;points=[[0,0,0],[0.25,0,0],[0.5,0,0],[0.75,0,0],[1,0,0],[0,1,0],[0.25,1,0],[0.5,1,0],[0.75,1,0],[1,1,0],[0,0.25,0],[0,0.5,0],[0,0.75,0],[1,0.25,0],[1,0.5,0],[1,0.75,0]];outlineConnect=0;fontColor=#232F3E;fillColor=#ED7100;strokeColor=#ffffff;dashed=0;verticalLabelPosition=bottom;verticalAlign=top;align=center;html=1;fontSize=12;fontStyle=0;aspect=fixed;shape=mxgraph.aws4.resourceIcon;resIcon=mxgraph.aws4.ec2;" vertex="1" parent="brHvFoJZMDcyv-ocwgSj-14">
          <mxGeometry x="50" y="78" width="50" height="50" as="geometry" />
        </mxCell>
        <mxCell id="brHvFoJZMDcyv-ocwgSj-18" value="Public subnet" style="points=[[0,0],[0.25,0],[0.5,0],[0.75,0],[1,0],[1,0.25],[1,0.5],[1,0.75],[1,1],[0.75,1],[0.5,1],[0.25,1],[0,1],[0,0.75],[0,0.5],[0,0.25]];outlineConnect=0;gradientColor=none;html=1;whiteSpace=wrap;fontSize=12;fontStyle=0;container=1;pointerEvents=0;collapsible=0;recursiveResize=0;shape=mxgraph.aws4.group;grIcon=mxgraph.aws4.group_security_group;grStroke=0;strokeColor=#7AA116;fillColor=#F2F6E8;verticalAlign=top;align=left;spacingLeft=30;fontColor=#248814;dashed=0;" vertex="1" parent="1">
          <mxGeometry x="420" y="200" width="130" height="150" as="geometry" />
        </mxCell>
        <mxCell id="brHvFoJZMDcyv-ocwgSj-11" value="" style="outlineConnect=0;dashed=0;verticalLabelPosition=bottom;verticalAlign=top;align=center;html=1;shape=mxgraph.aws3.application_load_balancer;fillColor=#F58536;gradientColor=none;" vertex="1" parent="brHvFoJZMDcyv-ocwgSj-18">
          <mxGeometry x="30.5" y="46" width="69" height="72" as="geometry" />
        </mxCell>
        <mxCell id="brHvFoJZMDcyv-ocwgSj-19" value="" style="outlineConnect=0;dashed=0;verticalLabelPosition=bottom;verticalAlign=top;align=center;html=1;shape=mxgraph.aws3.cloudfront;fillColor=#F58536;gradientColor=none;" vertex="1" parent="1">
          <mxGeometry x="670" y="218.5" width="76.5" height="81.5" as="geometry" />
        </mxCell>
        <mxCell id="brHvFoJZMDcyv-ocwgSj-20" value="" style="image;aspect=fixed;perimeter=ellipsePerimeter;html=1;align=center;shadow=0;dashed=0;spacingTop=3;image=img/lib/active_directory/users.svg;" vertex="1" parent="1">
          <mxGeometry x="900" y="250" width="33" height="50" as="geometry" />
        </mxCell>
        <mxCell id="brHvFoJZMDcyv-ocwgSj-21" value="" style="html=1;shadow=0;dashed=0;align=center;verticalAlign=middle;shape=mxgraph.arrows2.arrow;dy=0.6;dx=40;flipH=1;notch=0;" vertex="1" parent="1">
          <mxGeometry x="770" y="230" width="100" height="70" as="geometry" />
        </mxCell>
        <mxCell id="brHvFoJZMDcyv-ocwgSj-22" value="" style="html=1;shadow=0;dashed=0;align=center;verticalAlign=middle;shape=mxgraph.arrows2.arrow;dy=0.6;dx=40;flipH=1;notch=0;" vertex="1" parent="1">
          <mxGeometry x="560" y="230" width="100" height="70" as="geometry" />
        </mxCell>
        <mxCell id="brHvFoJZMDcyv-ocwgSj-48" style="edgeStyle=orthogonalEdgeStyle;rounded=0;orthogonalLoop=1;jettySize=auto;html=1;" edge="1" parent="1" source="brHvFoJZMDcyv-ocwgSj-24">
          <mxGeometry relative="1" as="geometry">
            <mxPoint x="650" y="450" as="targetPoint" />
          </mxGeometry>
        </mxCell>
        <mxCell id="brHvFoJZMDcyv-ocwgSj-24" value="amazon cloudfront" style="text;html=1;align=center;verticalAlign=middle;resizable=0;points=[];autosize=1;strokeColor=none;fillColor=none;" vertex="1" parent="1">
          <mxGeometry x="650" y="318" width="120" height="30" as="geometry" />
        </mxCell>
        <mxCell id="brHvFoJZMDcyv-ocwgSj-25" style="edgeStyle=orthogonalEdgeStyle;rounded=0;orthogonalLoop=1;jettySize=auto;html=1;entryX=1.038;entryY=0.88;entryDx=0;entryDy=0;entryPerimeter=0;" edge="1" parent="1" target="brHvFoJZMDcyv-ocwgSj-23">
          <mxGeometry relative="1" as="geometry">
            <mxPoint x="330" y="230" as="sourcePoint" />
          </mxGeometry>
        </mxCell>
        <mxCell id="brHvFoJZMDcyv-ocwgSj-27" value="SSL padlock" style="sketch=0;outlineConnect=0;fontColor=#232F3E;gradientColor=none;strokeColor=#232F3E;fillColor=#ffffff;dashed=0;verticalLabelPosition=bottom;verticalAlign=top;align=center;html=1;fontSize=12;fontStyle=0;aspect=fixed;shape=mxgraph.aws4.resourceIcon;resIcon=mxgraph.aws4.ssl_padlock;" vertex="1" parent="1">
          <mxGeometry x="835" y="250" width="35" height="35" as="geometry" />
        </mxCell>
        <mxCell id="brHvFoJZMDcyv-ocwgSj-28" style="edgeStyle=orthogonalEdgeStyle;rounded=0;orthogonalLoop=1;jettySize=auto;html=1;" edge="1" parent="1" source="brHvFoJZMDcyv-ocwgSj-27" target="brHvFoJZMDcyv-ocwgSj-27">
          <mxGeometry relative="1" as="geometry" />
        </mxCell>
        <mxCell id="brHvFoJZMDcyv-ocwgSj-31" style="edgeStyle=orthogonalEdgeStyle;rounded=0;orthogonalLoop=1;jettySize=auto;html=1;" edge="1" parent="1" source="brHvFoJZMDcyv-ocwgSj-27" target="brHvFoJZMDcyv-ocwgSj-27">
          <mxGeometry relative="1" as="geometry" />
        </mxCell>
        <mxCell id="brHvFoJZMDcyv-ocwgSj-26" value="SSL padlock" style="sketch=0;outlineConnect=0;fontColor=#232F3E;gradientColor=none;strokeColor=#232F3E;fillColor=#ffffff;dashed=0;verticalLabelPosition=bottom;verticalAlign=top;align=center;html=1;fontSize=12;fontStyle=0;aspect=fixed;shape=mxgraph.aws4.resourceIcon;resIcon=mxgraph.aws4.ssl_padlock;" vertex="1" parent="1">
          <mxGeometry x="610" y="248" width="40" height="40" as="geometry" />
        </mxCell>
        <mxCell id="brHvFoJZMDcyv-ocwgSj-32" value="" style="sketch=0;points=[[0,0,0],[0.25,0,0],[0.5,0,0],[0.75,0,0],[1,0,0],[0,1,0],[0.25,1,0],[0.5,1,0],[0.75,1,0],[1,1,0],[0,0.25,0],[0,0.5,0],[0,0.75,0],[1,0.25,0],[1,0.5,0],[1,0.75,0]];outlineConnect=0;fontColor=#232F3E;fillColor=#DD344C;strokeColor=#ffffff;dashed=0;verticalLabelPosition=bottom;verticalAlign=top;align=center;html=1;fontSize=12;fontStyle=0;aspect=fixed;shape=mxgraph.aws4.resourceIcon;resIcon=mxgraph.aws4.certificate_manager_3;" vertex="1" parent="1">
          <mxGeometry x="746.5" y="430" width="78" height="78" as="geometry" />
        </mxCell>
        <mxCell id="brHvFoJZMDcyv-ocwgSj-35" value="" style="endArrow=classic;html=1;rounded=0;" edge="1" parent="1" target="brHvFoJZMDcyv-ocwgSj-27">
          <mxGeometry width="50" height="50" relative="1" as="geometry">
            <mxPoint x="800" y="420" as="sourcePoint" />
            <mxPoint x="835" y="370" as="targetPoint" />
            <Array as="points">
              <mxPoint x="795" y="410" />
            </Array>
          </mxGeometry>
        </mxCell>
        <mxCell id="brHvFoJZMDcyv-ocwgSj-36" value="" style="endArrow=classic;html=1;rounded=0;" edge="1" parent="1" target="brHvFoJZMDcyv-ocwgSj-26">
          <mxGeometry width="50" height="50" relative="1" as="geometry">
            <mxPoint x="740" y="480" as="sourcePoint" />
            <mxPoint x="746.5" y="380" as="targetPoint" />
          </mxGeometry>
        </mxCell>
        <mxCell id="brHvFoJZMDcyv-ocwgSj-37" value="aws certificate manager" style="text;html=1;align=center;verticalAlign=middle;resizable=0;points=[];autosize=1;strokeColor=none;fillColor=none;" vertex="1" parent="1">
          <mxGeometry x="705" y="518" width="150" height="30" as="geometry" />
        </mxCell>
        <mxCell id="brHvFoJZMDcyv-ocwgSj-38" value="" style="sketch=0;points=[[0,0,0],[0.25,0,0],[0.5,0,0],[0.75,0,0],[1,0,0],[0,1,0],[0.25,1,0],[0.5,1,0],[0.75,1,0],[1,1,0],[0,0.25,0],[0,0.5,0],[0,0.75,0],[1,0.25,0],[1,0.5,0],[1,0.75,0]];outlineConnect=0;fontColor=#232F3E;fillColor=#DD344C;strokeColor=#ffffff;dashed=0;verticalLabelPosition=bottom;verticalAlign=top;align=center;html=1;fontSize=12;fontStyle=0;aspect=fixed;shape=mxgraph.aws4.resourceIcon;resIcon=mxgraph.aws4.waf;" vertex="1" parent="1">
          <mxGeometry x="680" y="70" width="78" height="78" as="geometry" />
        </mxCell>
        <mxCell id="brHvFoJZMDcyv-ocwgSj-41" style="edgeStyle=orthogonalEdgeStyle;rounded=0;orthogonalLoop=1;jettySize=auto;html=1;" edge="1" parent="1" source="brHvFoJZMDcyv-ocwgSj-39">
          <mxGeometry relative="1" as="geometry">
            <mxPoint x="864" y="320" as="targetPoint" />
          </mxGeometry>
        </mxCell>
        <mxCell id="brHvFoJZMDcyv-ocwgSj-39" value="" style="sketch=0;points=[[0,0,0],[0.25,0,0],[0.5,0,0],[0.75,0,0],[1,0,0],[0,1,0],[0.25,1,0],[0.5,1,0],[0.75,1,0],[1,1,0],[0,0.25,0],[0,0.5,0],[0,0.75,0],[1,0.25,0],[1,0.5,0],[1,0.75,0]];outlineConnect=0;fontColor=#232F3E;fillColor=#DD344C;strokeColor=#ffffff;dashed=0;verticalLabelPosition=bottom;verticalAlign=top;align=center;html=1;fontSize=12;fontStyle=0;aspect=fixed;shape=mxgraph.aws4.resourceIcon;resIcon=mxgraph.aws4.shield;" vertex="1" parent="1">
          <mxGeometry x="825" y="70" width="78" height="78" as="geometry" />
        </mxCell>
        <mxCell id="brHvFoJZMDcyv-ocwgSj-40" style="edgeStyle=orthogonalEdgeStyle;rounded=0;orthogonalLoop=1;jettySize=auto;html=1;entryX=0.37;entryY=0.357;entryDx=0;entryDy=0;entryPerimeter=0;" edge="1" parent="1" source="brHvFoJZMDcyv-ocwgSj-38" target="brHvFoJZMDcyv-ocwgSj-21">
          <mxGeometry relative="1" as="geometry" />
        </mxCell>
        <mxCell id="brHvFoJZMDcyv-ocwgSj-42" value="" style="sketch=0;outlineConnect=0;fontColor=#232F3E;gradientColor=none;fillColor=#7AA116;strokeColor=none;dashed=0;verticalLabelPosition=bottom;verticalAlign=top;align=center;html=1;fontSize=12;fontStyle=0;aspect=fixed;pointerEvents=1;shape=mxgraph.aws4.bucket;" vertex="1" parent="1">
          <mxGeometry x="440" y="460" width="57.69" height="60" as="geometry" />
        </mxCell>
        <mxCell id="brHvFoJZMDcyv-ocwgSj-45" style="edgeStyle=orthogonalEdgeStyle;rounded=0;orthogonalLoop=1;jettySize=auto;html=1;" edge="1" parent="1" source="brHvFoJZMDcyv-ocwgSj-43">
          <mxGeometry relative="1" as="geometry">
            <mxPoint x="330" y="480" as="targetPoint" />
          </mxGeometry>
        </mxCell>
        <mxCell id="brHvFoJZMDcyv-ocwgSj-43" value="" style="outlineConnect=0;dashed=0;verticalLabelPosition=bottom;verticalAlign=top;align=center;html=1;shape=mxgraph.aws3.config_rule;fillColor=#759C3E;gradientColor=none;" vertex="1" parent="1">
          <mxGeometry x="410" y="10" width="55.5" height="72" as="geometry" />
        </mxCell>
        <mxCell id="brHvFoJZMDcyv-ocwgSj-46" value="" style="endArrow=classic;html=1;rounded=0;" edge="1" parent="1">
          <mxGeometry width="50" height="50" relative="1" as="geometry">
            <mxPoint x="330" y="480" as="sourcePoint" />
            <mxPoint x="440" y="480" as="targetPoint" />
          </mxGeometry>
        </mxCell>
        <mxCell id="brHvFoJZMDcyv-ocwgSj-47" style="edgeStyle=orthogonalEdgeStyle;rounded=0;orthogonalLoop=1;jettySize=auto;html=1;exitX=0.5;exitY=1;exitDx=0;exitDy=0;exitPerimeter=0;" edge="1" parent="1" source="brHvFoJZMDcyv-ocwgSj-11" target="brHvFoJZMDcyv-ocwgSj-42">
          <mxGeometry relative="1" as="geometry" />
        </mxCell>
        <mxCell id="brHvFoJZMDcyv-ocwgSj-49" value="" style="endArrow=classic;html=1;rounded=0;" edge="1" parent="1">
          <mxGeometry width="50" height="50" relative="1" as="geometry">
            <mxPoint x="650" y="450" as="sourcePoint" />
            <mxPoint x="500" y="480" as="targetPoint" />
          </mxGeometry>
        </mxCell>
        <mxCell id="brHvFoJZMDcyv-ocwgSj-53" style="edgeStyle=orthogonalEdgeStyle;rounded=0;orthogonalLoop=1;jettySize=auto;html=1;" edge="1" parent="1" source="brHvFoJZMDcyv-ocwgSj-50" target="brHvFoJZMDcyv-ocwgSj-54">
          <mxGeometry relative="1" as="geometry">
            <mxPoint x="10" y="250" as="targetPoint" />
          </mxGeometry>
        </mxCell>
        <mxCell id="brHvFoJZMDcyv-ocwgSj-50" value="j" style="sketch=0;points=[[0,0,0],[0.25,0,0],[0.5,0,0],[0.75,0,0],[1,0,0],[0,1,0],[0.25,1,0],[0.5,1,0],[0.75,1,0],[1,1,0],[0,0.25,0],[0,0.5,0],[0,0.75,0],[1,0.25,0],[1,0.5,0],[1,0.75,0]];outlineConnect=0;fontColor=#232F3E;fillColor=#DD344C;strokeColor=#ffffff;dashed=0;verticalLabelPosition=bottom;verticalAlign=top;align=center;html=1;fontSize=12;fontStyle=0;aspect=fixed;shape=mxgraph.aws4.resourceIcon;resIcon=mxgraph.aws4.inspector;" vertex="1" parent="1">
          <mxGeometry x="10" y="10" width="78" height="78" as="geometry" />
        </mxCell>
        <mxCell id="brHvFoJZMDcyv-ocwgSj-64" value="amazon inspector" style="text;html=1;align=center;verticalAlign=middle;resizable=0;points=[];autosize=1;strokeColor=none;fillColor=none;" vertex="1" parent="1">
          <mxGeometry y="94" width="120" height="30" as="geometry" />
        </mxCell>
        <mxCell id="brHvFoJZMDcyv-ocwgSj-65" value="aws waf" style="text;html=1;align=center;verticalAlign=middle;resizable=0;points=[];autosize=1;strokeColor=none;fillColor=none;" vertex="1" parent="1">
          <mxGeometry x="688" y="148" width="70" height="30" as="geometry" />
        </mxCell>
        <mxCell id="brHvFoJZMDcyv-ocwgSj-66" value="aws shield&amp;nbsp;" style="text;html=1;align=center;verticalAlign=middle;resizable=0;points=[];autosize=1;strokeColor=none;fillColor=none;" vertex="1" parent="1">
          <mxGeometry x="835" y="148" width="80" height="30" as="geometry" />
        </mxCell>
        <mxCell id="brHvFoJZMDcyv-ocwgSj-67" value="AWS CONFIG" style="text;html=1;align=center;verticalAlign=middle;resizable=0;points=[];autosize=1;strokeColor=none;fillColor=none;" vertex="1" parent="1">
          <mxGeometry x="397.69" y="90" width="100" height="30" as="geometry" />
        </mxCell>
        <mxCell id="brHvFoJZMDcyv-ocwgSj-68" value="" style="outlineConnect=0;dashed=0;verticalLabelPosition=bottom;verticalAlign=top;align=center;html=1;shape=mxgraph.aws3.sns;fillColor=#D9A741;gradientColor=none;" vertex="1" parent="1">
          <mxGeometry x="170" y="-120" width="76.5" height="76.5" as="geometry" />
        </mxCell>
        <mxCell id="brHvFoJZMDcyv-ocwgSj-69" value="" style="endArrow=classic;html=1;rounded=0;" edge="1" parent="1" target="brHvFoJZMDcyv-ocwgSj-68">
          <mxGeometry width="50" height="50" relative="1" as="geometry">
            <mxPoint x="100" y="40" as="sourcePoint" />
            <mxPoint x="100" y="30" as="targetPoint" />
          </mxGeometry>
        </mxCell>
        <mxCell id="brHvFoJZMDcyv-ocwgSj-71" value="" style="endArrow=classic;html=1;rounded=0;" edge="1" parent="1">
          <mxGeometry width="50" height="50" relative="1" as="geometry">
            <mxPoint x="260" y="-80" as="sourcePoint" />
            <mxPoint x="730" y="60" as="targetPoint" />
          </mxGeometry>
        </mxCell>
        <mxCell id="brHvFoJZMDcyv-ocwgSj-72" value="" style="endArrow=none;html=1;rounded=0;" edge="1" parent="1">
          <mxGeometry width="50" height="50" relative="1" as="geometry">
            <mxPoint x="470" y="50" as="sourcePoint" />
            <mxPoint x="520" as="targetPoint" />
          </mxGeometry>
        </mxCell>
        <mxCell id="brHvFoJZMDcyv-ocwgSj-73" value="SNS TOPIC" style="text;html=1;align=center;verticalAlign=middle;resizable=0;points=[];autosize=1;strokeColor=none;fillColor=none;" vertex="1" parent="1">
          <mxGeometry x="165" y="-32" width="90" height="30" as="geometry" />
        </mxCell>
        <mxCell id="brHvFoJZMDcyv-ocwgSj-74" value="USER" style="text;html=1;align=center;verticalAlign=middle;resizable=0;points=[];autosize=1;strokeColor=none;fillColor=none;" vertex="1" parent="1">
          <mxGeometry x="886.5" y="300" width="60" height="30" as="geometry" />
        </mxCell>
      </root>
    </mxGraphModel>
  </diagram>
</mxfile>
